RobotoSerifText-Black.ufo
<glyph name="numbersign" format="1">
  <advance width="628"/>
  <unicode hex="0023"/>
  <outline>
    <contour>
      <point x="67" y="0" type="line"/>
      <point x="160" y="0" type="line"/>
      <point x="344" y="750" type="line"/>
      <point x="251" y="750" type="line"/>
    </contour>
    <contour>
      <point x="15" y="198" type="line"/>
      <point x="557" y="198" type="line"/>
      <point x="557" y="328" type="line"/>
      <point x="15" y="328" type="line"/>
    </contour>
    <contour>
      <point x="68" y="442" type="line"/>
      <point x="610" y="442" type="line"/>
      <point x="610" y="572" type="line"/>
      <point x="68" y="572" type="line"/>
    </contour>
    <contour>
      <point x="267" y="0" type="line"/>
      <point x="360" y="0" type="line"/>
      <point x="544" y="750" type="line"/>
      <point x="449" y="750" type="line"/>
    </contour>
  </outline>
</glyph>
<glyph name="plus" format="1">
  <advance width="560"/>
  <unicode hex="002B"/>
  <outline>
    <contour>
      <point x="214" y="567" type="line"/>
      <point x="214" y="116" type="line"/>
      <point x="345" y="116" type="line"/>
      <point x="345" y="567" type="line"/>
    </contour>
    <contour>
      <point x="501" y="402" type="line"/>
      <point x="60" y="402" type="line"/>
      <point x="60" y="280" type="line"/>
      <point x="501" y="280" type="line"/>
    </contour>
  </outline>
</glyph>
<glyph name="slash" format="1">
  <advance width="478"/>
  <unicode hex="002F"/>
  <outline>
    <contour>
      <point x="350" y="735" type="line"/>
      <point x="-12" y="-145" type="line"/>
      <point x="128" y="-145" type="line"/>
      <point x="490" y="735" type="line"/>
    </contour>
  </outline>
</glyph>
<glyph name="two" format="1">
  <advance width="560"/>
  <unicode hex="0032"/>
  <outline>
    <contour>
      <point x="323" y="138" type="line" smooth="yes"/>
      <point x="401" y="138"/>
      <point x="429" y="142"/>
      <point x="434" y="178" type="curve" smooth="yes"/>
      <point x="443" y="231" type="line"/>
      <point x="526" y="231" type="line"/>
      <point x="526" y="0" type="line"/>
      <point x="26" y="0" type="line"/>
      <point x="26" y="152" type="line"/>
      <point x="187" y="242"/>
      <point x="315" y="302"/>
      <point x="315" y="440" type="curve" smooth="yes"/>
      <point x="315" y="503"/>
      <point x="291" y="532"/>
      <point x="243" y="532" type="curve" smooth="yes"/>
      <point x="201" y="532"/>
      <point x="173" y="508"/>
      <point x="153" y="480" type="curve"/>
      <point x="151" y="491"/>
      <point x="154" y="535"/>
      <point x="184" y="538" type="curve"/>
      <point x="184" y="415" type="line"/>
      <point x="33" y="415" type="line"/>
      <point x="33" y="540" type="line"/>
      <point x="75" y="579"/>
      <point x="158" y="618"/>
      <point x="268" y="618" type="curve" smooth="yes"/>
      <point x="426" y="618"/>
      <point x="509" y="551"/>
      <point x="509" y="439" type="curve" smooth="yes"/>
      <point x="509" y="280"/>
      <point x="288" y="185"/>
      <point x="109" y="115" type="curve"/>
      <point x="94" y="111"/>
      <point x="97" y="132"/>
      <point x="99" y="138" type="curve"/>
    </contour>
  </outline>
</glyph>
<glyph name="less" format="1">
  <advance width="560"/>
  <unicode hex="003C"/>
  <outline>
    <contour>
      <point x="472" y="581" type="line"/>
      <point x="88" y="406" type="line"/>
      <point x="88" y="337" type="line"/>
      <point x="109" y="294" type="line"/>
      <point x="472" y="455" type="line"/>
    </contour>
    <contour>
      <point x="472" y="245" type="line"/>
      <point x="110" y="406" type="line"/>
      <point x="88" y="355" type="line"/>
      <point x="88" y="285" type="line"/>
      <point x="472" y="109" type="line"/>
    </contour>
  </outline>
</glyph>
<glyph name="X" format="1">
  <advance width="736"/>
  <unicode hex="0058"/>
  <outline>
    <contour>
      <point x="21" y="637" type="line"/>
      <point x="25" y="637" type="line" smooth="yes"/>
      <point x="51" y="637"/>
      <point x="63" y="633"/>
      <point x="81" y="605" type="curve" smooth="yes"/>
      <point x="260" y="331" type="line"/>
      <point x="266" y="327" type="line"/>
      <point x="427" y="83" type="line"/>
      <point x="427" y="76"/>
      <point x="399" y="73"/>
      <point x="376" y="73" type="curve" smooth="yes"/>
      <point x="361" y="73" type="line"/>
      <point x="361" y="0" type="line"/>
      <point x="723" y="0" type="line"/>
      <point x="723" y="73" type="line"/>
      <point x="714" y="73" type="line" smooth="yes"/>
      <point x="687" y="73"/>
      <point x="677" y="79"/>
      <point x="657" y="107" type="curve" smooth="yes"/>
      <point x="453" y="408" type="line"/>
      <point x="448" y="411" type="line"/>
      <point x="311" y="627" type="line"/>
      <point x="311" y="634"/>
      <point x="339" y="637"/>
      <point x="361" y="637" type="curve" smooth="yes"/>
      <point x="376" y="637" type="line"/>
      <point x="376" y="710" type="line"/>
      <point x="21" y="710" type="line"/>
    </contour>
    <contour>
      <point x="479" y="363" type="line"/>
      <point x="627" y="592" type="line" smooth="yes"/>
      <point x="649" y="626"/>
      <point x="664" y="637"/>
      <point x="692" y="637" type="curve" smooth="yes"/>
      <point x="696" y="637" type="line"/>
      <point x="696" y="710" type="line"/>
      <point x="486" y="710" type="line"/>
      <point x="486" y="637" type="line"/>
      <point x="499" y="637" type="line" smooth="yes"/>
      <point x="523" y="637"/>
      <point x="551" y="630"/>
      <point x="551" y="619" type="curve"/>
      <point x="414" y="404" type="line"/>
    </contour>
    <contour>
      <point x="13" y="0" type="line"/>
      <point x="226" y="0" type="line"/>
      <point x="226" y="73" type="line"/>
      <point x="214" y="73" type="line" smooth="yes"/>
      <point x="190" y="73"/>
      <point x="160" y="80"/>
      <point x="160" y="91" type="curve"/>
      <point x="336" y="350" type="line"/>
      <point x="273" y="393" type="line"/>
      <point x="84" y="119" type="line" smooth="yes"/>
      <point x="61" y="85"/>
      <point x="48" y="73"/>
      <point x="22" y="73" type="curve" smooth="yes"/>
      <point x="13" y="73" type="line"/>
    </contour>
  </outline>
</glyph>
<glyph name="Z" format="1">
  <advance width="639"/>
  <unicode hex="005A"/>
  <outline>
    <contour>
      <point x="156" y="85" type="line"/>
      <point x="193" y="10" type="line"/>
      <point x="601" y="607" type="line"/>
      <point x="601" y="710" type="line"/>
      <point x="44" y="710" type="line"/>
      <point x="44" y="497" type="line"/>
      <point x="139" y="497" type="line"/>
      <point x="145" y="583" type="line" smooth="yes"/>
      <point x="147" y="619"/>
      <point x="183" y="626"/>
      <point x="242" y="626" type="curve" smooth="yes"/>
      <point x="451" y="626" type="line"/>
      <point x="420" y="688" type="line"/>
      <point x="24" y="107" type="line"/>
      <point x="24" y="0" type="line"/>
      <point x="614" y="0" type="line"/>
      <point x="614" y="236" type="line"/>
      <point x="519" y="236" type="line"/>
      <point x="507" y="128" type="line" smooth="yes"/>
      <point x="504" y="92"/>
      <point x="473" y="85"/>
      <point x="394" y="85" type="curve" smooth="yes"/>
    </contour>
    <contour>
      <point x="329" y="741" type="move" name="top"/>
    </contour>
    <contour>
      <point x="329" y="0" type="move" name="bottom"/>
    </contour>
  </outline>
</glyph>
<glyph name="asciicircum" format="1">
  <advance width="502"/>
  <unicode hex="005E"/>
  <outline>
    <contour>
      <point x="165" y="354" type="line"/>
      <point x="282" y="685" type="line"/>
      <point x="286" y="710" type="line"/>
      <point x="172" y="710" type="line"/>
      <point x="24" y="354" type="line"/>
    </contour>
    <contour>
      <point x="333" y="354" type="line"/>
      <point x="478" y="354" type="line"/>
      <point x="331" y="710" type="line"/>
      <point x="214" y="710" type="line"/>
      <point x="215" y="686" type="line"/>
    </contour>
  </outline>
</glyph>
<glyph name="g" format="1">
  <advance width="631"/>
  <unicode hex="0067"/>
  <outline>
    <contour>
      <point x="261" y="-236" type="curve" smooth="yes"/>
      <point x="316" y="-236" type="line" smooth="yes"/>
      <point x="492" y="-236"/>
      <point x="617" y="-174"/>
      <point x="617" y="-42" type="curve" smooth="yes"/>
      <point x="617" y="53"/>
      <point x="543" y="99"/>
      <point x="408" y="99" type="curve" smooth="yes"/>
      <point x="231" y="99" type="line" smooth="yes"/>
      <point x="190" y="99"/>
      <point x="172" y="108"/>
      <point x="172" y="130" type="curve" smooth="yes"/>
      <point x="172" y="155"/>
      <point x="197" y="174"/>
      <point x="243" y="189" type="curve"/>
      <point x="264" y="222"/>
      <point x="174" y="244"/>
      <point x="158" y="206" type="curve"/>
      <point x="81" y="180"/>
      <point x="27" y="136"/>
      <point x="27" y="72" type="curve" smooth="yes"/>
      <point x="27" y="13"/>
      <point x="60" y="-25"/>
      <point x="125" y="-47" type="curve"/>
      <point x="101" y="-53"/>
      <point x="99" y="-58"/>
      <point x="128" y="-68" type="curve"/>
      <point x="397" y="-68" type="line" smooth="yes"/>
      <point x="438" y="-68"/>
      <point x="451" y="-77"/>
      <point x="451" y="-98" type="curve" smooth="yes"/>
      <point x="451" y="-133"/>
      <point x="401" y="-160"/>
      <point x="304" y="-160" type="curve" smooth="yes"/>
      <point x="276" y="-160" type="line" smooth="yes"/>
      <point x="182" y="-160"/>
      <point x="142" y="-143"/>
      <point x="142" y="-109" type="curve" smooth="yes"/>
      <point x="142" y="-84"/>
      <point x="156" y="-68"/>
      <point x="195" y="-52" type="curve"/>
      <point x="168" y="-20" type="line"/>
      <point x="38" y="-42"/>
      <point x="-7" y="-71"/>
      <point x="-7" y="-122" type="curve" smooth="yes"/>
      <point x="-7" y="-206"/>
      <point x="103" y="-236"/>
    </contour>
    <contour>
      <point x="233" y="340" type="curve" smooth="yes"/>
      <point x="233" y="414"/>
      <point x="255" y="446"/>
      <point x="293" y="446" type="curve" smooth="yes"/>
      <point x="332" y="446"/>
      <point x="354" y="414"/>
      <point x="354" y="340" type="curve" smooth="yes"/>
      <point x="354" y="267"/>
      <point x="332" y="237"/>
      <point x="293" y="237" type="curve" smooth="yes"/>
      <point x="255" y="237"/>
      <point x="233" y="267"/>
    </contour>
    <contour>
      <point x="293" y="164" type="curve" smooth="yes"/>
      <point x="442" y="164"/>
      <point x="542" y="230"/>
      <point x="542" y="341" type="curve" smooth="yes"/>
      <point x="542" y="452"/>
      <point x="442" y="523"/>
      <point x="293" y="523" type="curve" smooth="yes"/>
      <point x="145" y="523"/>
      <point x="46" y="452"/>
      <point x="46" y="341" type="curve" smooth="yes"/>
      <point x="46" y="230"/>
      <point x="143" y="164"/>
    </contour>
    <contour>
      <point x="627" y="398" type="curve"/>
      <point x="627" y="533" type="line"/>
      <point x="540" y="545"/>
      <point x="487" y="494"/>
      <point x="445" y="411" type="curve"/>
      <point x="467" y="408" type="line"/>
      <point x="499" y="418"/>
      <point x="554" y="413"/>
    </contour>
    <contour>
      <point x="271" y="545" type="move" name="top"/>
    </contour>
  </outline>
</glyph>
<glyph name="h" format="1">
  <advance width="674"/>
  <unicode hex="0068"/>
  <outline>
    <contour>
      <point x="22" y="0" type="line"/>
      <point x="316" y="0" type="line"/>
      <point x="316" y="68" type="line"/>
      <point x="313" y="68" type="line" smooth="yes"/>
      <point x="298" y="68"/>
      <point x="274" y="71"/>
      <point x="274" y="77" type="curve"/>
      <point x="274" y="731" type="line"/>
      <point x="22" y="731" type="line"/>
      <point x="22" y="660" type="line"/>
      <point x="30" y="658" type="line" smooth="yes"/>
      <point x="57" y="651"/>
      <point x="68" y="646"/>
      <point x="68" y="627" type="curve" smooth="yes"/>
      <point x="68" y="97" type="line" smooth="yes"/>
      <point x="68" y="75"/>
      <point x="48" y="68"/>
      <point x="23" y="68" type="curve" smooth="yes"/>
      <point x="22" y="68" type="line"/>
    </contour>
    <contour>
      <point x="663" y="0" type="line"/>
      <point x="663" y="68" type="line"/>
      <point x="661" y="68" type="line" smooth="yes"/>
      <point x="636" y="68"/>
      <point x="616" y="75"/>
      <point x="616" y="97" type="curve" smooth="yes"/>
      <point x="616" y="347" type="line" smooth="yes"/>
      <point x="616" y="462"/>
      <point x="548" y="523"/>
      <point x="444" y="523" type="curve" smooth="yes"/>
      <point x="352" y="523"/>
      <point x="288" y="473"/>
      <point x="248" y="397" type="curve"/>
      <point x="264" y="324" type="line"/>
      <point x="289" y="380"/>
      <point x="322" y="413"/>
      <point x="363" y="413" type="curve" smooth="yes"/>
      <point x="399" y="413"/>
      <point x="410" y="393"/>
      <point x="410" y="351" type="curve" smooth="yes"/>
      <point x="410" y="77" type="line" smooth="yes"/>
      <point x="410" y="71"/>
      <point x="386" y="68"/>
      <point x="370" y="68" type="curve" smooth="yes"/>
      <point x="369" y="68" type="line"/>
      <point x="369" y="0" type="line"/>
    </contour>
    <contour>
      <point x="339" y="736" type="move" name="top"/>
    </contour>
    <contour>
      <point x="329" y="0" type="move" name="bottom"/>
    </contour>
  </outline>
</glyph>
<glyph name="i" format="1">
  <advance width="336"/>
  <unicode hex="0069"/>
  <outline>
    <contour>
      <point x="169" y="572" type="curve" smooth="yes"/>
      <point x="237" y="572"/>
      <point x="277" y="605"/>
      <point x="277" y="660" type="curve" smooth="yes"/>
      <point x="277" y="715"/>
      <point x="237" y="748"/>
      <point x="169" y="748" type="curve" smooth="yes"/>
      <point x="102" y="748"/>
      <point x="61" y="715"/>
      <point x="61" y="660" type="curve" smooth="yes"/>
      <point x="61" y="604"/>
      <point x="102" y="572"/>
    </contour>
    <contour>
      <point x="274" y="513" type="line"/>
      <point x="22" y="513" type="line"/>
      <point x="22" y="441" type="line"/>
      <point x="30" y="439" type="line" smooth="yes"/>
      <point x="57" y="432"/>
      <point x="68" y="428"/>
      <point x="68" y="408" type="curve" smooth="yes"/>
      <point x="68" y="97" type="line" smooth="yes"/>
      <point x="68" y="75"/>
      <point x="48" y="68"/>
      <point x="23" y="68" type="curve" smooth="yes"/>
      <point x="22" y="68" type="line"/>
      <point x="22" y="0" type="line"/>
      <point x="321" y="0" type="line"/>
      <point x="321" y="68" type="line"/>
      <point x="320" y="68" type="line" smooth="yes"/>
      <point x="294" y="68"/>
      <point x="274" y="75"/>
      <point x="274" y="97" type="curve" smooth="yes"/>
    </contour>
    <contour>
      <point x="169" y="551" type="move" name="top"/>
    </contour>
    <contour>
      <point x="215" y="-10" type="move" name="right"/>
    </contour>
    <contour>
      <point x="167" y="-10" type="move" name="bottom"/>
    </contour>
  </outline>
</glyph>
<glyph name="p" format="1">
  <advance width="683"/>
  <unicode hex="0070"/>
  <outline>
    <contour>
      <point x="20" y="-223" type="line"/>
      <point x="340" y="-223" type="line"/>
      <point x="340" y="-155" type="line"/>
      <point x="332" y="-155" type="line" smooth="yes"/>
      <point x="309" y="-155"/>
      <point x="273" y="-153"/>
      <point x="273" y="-146" type="curve" smooth="yes"/>
      <point x="273" y="375" type="line"/>
      <point x="260" y="375" type="line"/>
      <point x="260" y="513" type="line"/>
      <point x="20" y="513" type="line"/>
      <point x="20" y="441" type="line"/>
      <point x="28" y="439" type="line" smooth="yes"/>
      <point x="56" y="432"/>
      <point x="67" y="428"/>
      <point x="67" y="408" type="curve" smooth="yes"/>
      <point x="67" y="-126" type="line" smooth="yes"/>
      <point x="67" y="-149"/>
      <point x="47" y="-155"/>
      <point x="22" y="-155" type="curve"/>
      <point x="20" y="-155" type="line"/>
    </contour>
    <contour>
      <point x="440" y="261" type="curve" smooth="yes"/>
      <point x="440" y="154"/>
      <point x="414" y="87"/>
      <point x="355" y="87" type="curve" smooth="yes"/>
      <point x="302" y="87"/>
      <point x="275" y="136"/>
      <point x="248" y="204" type="curve"/>
      <point x="198" y="155" type="line"/>
      <point x="244" y="38"/>
      <point x="304" y="-13"/>
      <point x="416" y="-13" type="curve" smooth="yes"/>
      <point x="554" y="-13"/>
      <point x="651" y="100"/>
      <point x="651" y="261" type="curve" smooth="yes"/>
      <point x="651" y="419"/>
      <point x="562" y="523"/>
      <point x="423" y="523" type="curve" smooth="yes"/>
      <point x="322" y="523"/>
      <point x="274" y="464"/>
      <point x="215" y="348" type="curve"/>
      <point x="249" y="295" type="line"/>
      <point x="282" y="373"/>
      <point x="312" y="422"/>
      <point x="362" y="422" type="curve" smooth="yes"/>
      <point x="415" y="422"/>
      <point x="440" y="366"/>
    </contour>
  </outline>
</glyph>
<glyph name="w" format="1">
  <advance width="868"/>
  <unicode hex="0077"/>
  <outline>
    <contour>
      <point x="446" y="351" type="line"/>
      <point x="360" y="0" type="line"/>
      <point x="163" y="0" type="line"/>
      <point x="58" y="412" type="line" smooth="yes"/>
      <point x="52" y="437"/>
      <point x="36" y="445"/>
      <point x="9" y="445" type="curve"/>
      <point x="7" y="445" type="line"/>
      <point x="7" y="513" type="line"/>
      <point x="317" y="513" type="line"/>
      <point x="317" y="445" type="line"/>
      <point x="316" y="445" type="line" smooth="yes"/>
      <point x="287" y="445"/>
      <point x="258" y="443"/>
      <point x="258" y="436" type="curve"/>
      <point x="332" y="107" type="line"/>
      <point x="298" y="55" type="line"/>
      <point x="410" y="513" type="line"/>
      <point x="575" y="513" type="line"/>
      <point x="675" y="107" type="line"/>
      <point x="636" y="58" type="line"/>
      <point x="726" y="424" type="line"/>
      <point x="725" y="436"/>
      <point x="699" y="445"/>
      <point x="672" y="445" type="curve" smooth="yes"/>
      <point x="671" y="445" type="line"/>
      <point x="671" y="513" type="line"/>
      <point x="860" y="513" type="line"/>
      <point x="860" y="445" type="line"/>
      <point x="859" y="445" type="line"/>
      <point x="836" y="445"/>
      <point x="816" y="434"/>
      <point x="809" y="403" type="curve" smooth="yes"/>
      <point x="708" y="0" type="line"/>
      <point x="510" y="0" type="line"/>
      <point x="429" y="361" type="line"/>
    </contour>
    <contour>
      <point x="425" y="551" type="move" name="top"/>
    </contour>
  </outline>
</glyph>
<glyph name="degree" format="1">
  <advance width="501"/>
  <unicode hex="00B0"/>
  <outline>
    <contour>
      <point x="340" y="533" type="curve" smooth="yes"/>
      <point x="340" y="475"/>
      <point x="304" y="438"/>
      <point x="251" y="438" type="curve" smooth="yes"/>
      <point x="198" y="438"/>
      <point x="161" y="475"/>
      <point x="161" y="533" type="curve" smooth="yes"/>
      <point x="161" y="591"/>
      <point x="198" y="628"/>
      <point x="251" y="628" type="curve" smooth="yes"/>
      <point x="304" y="628"/>
      <point x="340" y="591"/>
    </contour>
    <contour>
      <point x="44" y="533" type="curve" smooth="yes"/>
      <point x="44" y="416"/>
      <point x="136" y="336"/>
      <point x="251" y="336" type="curve" smooth="yes"/>
      <point x="365" y="336"/>
      <point x="457" y="416"/>
      <point x="457" y="533" type="curve" smooth="yes"/>
      <point x="457" y="649"/>
      <point x="365" y="729"/>
      <point x="251" y="729" type="curve" smooth="yes"/>
      <point x="136" y="729"/>
      <point x="44" y="649"/>
    </contour>
  </outline>
</glyph>
<glyph name="Oslash" format="1">
  <advance width="809"/>
  <unicode hex="00D8"/>
  <outline>
    <contour>
      <point x="687" y="725" type="line"/>
      <point x="-15" y="-15" type="line"/>
      <point x="100" y="-15" type="line"/>
      <point x="801" y="725" type="line"/>
    </contour>
    <contour>
      <point x="405" y="-10" type="curve" smooth="yes"/>
      <point x="622" y="-10"/>
      <point x="776" y="135"/>
      <point x="776" y="355" type="curve" smooth="yes"/>
      <point x="776" y="576"/>
      <point x="607" y="720"/>
      <point x="405" y="720" type="curve" smooth="yes"/>
      <point x="187" y="720"/>
      <point x="33" y="576"/>
      <point x="33" y="355" type="curve" smooth="yes"/>
      <point x="33" y="135"/>
      <point x="205" y="-10"/>
    </contour>
    <contour>
      <point x="401" y="80" type="curve" smooth="yes"/>
      <point x="300" y="80"/>
      <point x="248" y="164"/>
      <point x="248" y="355" type="curve" smooth="yes"/>
      <point x="248" y="534"/>
      <point x="310" y="630"/>
      <point x="408" y="630" type="curve" smooth="yes"/>
      <point x="509" y="630"/>
      <point x="561" y="546"/>
      <point x="561" y="355" type="curve" smooth="yes"/>
      <point x="561" y="176"/>
      <point x="499" y="80"/>
    </contour>
    <contour>
      <point x="396" y="731" type="move" name="top"/>
    </contour>
  </outline>
</glyph>
<glyph name="germandbls" format="1">
  <advance width="682"/>
  <unicode hex="00DF"/>
  <outline>
    <contour>
      <point x="10" y="513" type="line"/>
      <point x="10" y="435" type="line"/>
      <point x="146" y="435" type="line"/>
      <point x="146" y="513" type="line"/>
    </contour>
    <contour>
      <point x="22" y="0" type="line"/>
      <point x="294" y="0" type="line"/>
      <point x="294" y="558" type="line" smooth="yes"/>
      <point x="294" y="638"/>
      <point x="315" y="664"/>
      <point x="357" y="664" type="curve" smooth="yes"/>
      <point x="395" y="664"/>
      <point x="415" y="639"/>
      <point x="415" y="586" type="curve" smooth="yes"/>
      <point x="415" y="501"/>
      <point x="377" y="464"/>
      <point x="333" y="456" type="curve"/>
      <point x="333" y="383" type="line"/>
      <point x="337" y="382" type="line" smooth="yes"/>
      <point x="399" y="375"/>
      <point x="446" y="310"/>
      <point x="446" y="205" type="curve" smooth="yes"/>
      <point x="446" y="102"/>
      <point x="415" y="74"/>
      <point x="378" y="74" type="curve" smooth="yes"/>
      <point x="357" y="74"/>
      <point x="339" y="82"/>
      <point x="333" y="84" type="curve"/>
      <point x="333" y="8" type="line"/>
      <point x="354" y="-1"/>
      <point x="396" y="-11"/>
      <point x="443" y="-11" type="curve" smooth="yes"/>
      <point x="574" y="-11"/>
      <point x="657" y="60"/>
      <point x="657" y="194" type="curve" smooth="yes"/>
      <point x="657" y="324"/>
      <point x="554" y="421"/>
      <point x="390" y="442" type="curve"/>
      <point x="365" y="423" type="line"/>
      <point x="492" y="422"/>
      <point x="604" y="479"/>
      <point x="604" y="586" type="curve" smooth="yes"/>
      <point x="604" y="688"/>
      <point x="513" y="748"/>
      <point x="355" y="748" type="curve" smooth="yes"/>
      <point x="170" y="748"/>
      <point x="88" y="672"/>
      <point x="88" y="538" type="curve" smooth="yes"/>
      <point x="88" y="100" type="line" smooth="yes"/>
      <point x="88" y="78"/>
      <point x="69" y="68"/>
      <point x="34" y="68" type="curve" smooth="yes"/>
      <point x="22" y="68" type="line"/>
    </contour>
  </outline>
</glyph>
<glyph name="Aogonek" format="1">
  <advance width="730"/>
  <unicode hex="0104"/>
  <outline>
    <contour>
      <point x="167" y="308" type="line"/>
      <point x="154" y="226" type="line"/>
      <point x="431" y="226" type="line"/>
      <point x="430" y="308" type="line"/>
    </contour>
    <contour>
      <point x="10" y="0" type="line"/>
      <point x="216" y="0" type="line"/>
      <point x="216" y="73" type="line"/>
      <point x="203" y="73" type="line" smooth="yes"/>
      <point x="176" y="73"/>
      <point x="147" y="80"/>
      <point x="147" y="91" type="curve"/>
      <point x="345" y="710" type="line"/>
      <point x="257" y="710" type="line"/>
      <point x="64" y="116" type="line" smooth="yes"/>
      <point x="54" y="82"/>
      <point x="40" y="73"/>
      <point x="15" y="73" type="curve"/>
      <point x="10" y="73" type="line"/>
    </contour>
    <contour>
      <point x="524" y="61" type="curve"/>
      <point x="376" y="3"/>
      <point x="298" y="-53"/>
      <point x="298" y="-138" type="curve" smooth="yes"/>
      <point x="298" y="-207"/>
      <point x="353" y="-244"/>
      <point x="435" y="-244" type="curve" smooth="yes"/>
      <point x="510" y="-244"/>
      <point x="552" y="-215"/>
      <point x="585" y="-172" type="curve"/>
      <point x="542" y="-125" type="line"/>
      <point x="531" y="-134"/>
      <point x="514" y="-153"/>
      <point x="489" y="-153" type="curve" smooth="yes"/>
      <point x="466" y="-153"/>
      <point x="451" y="-139"/>
      <point x="451" y="-111" type="curve" smooth="yes"/>
      <point x="451" y="-75"/>
      <point x="473" y="-30"/>
      <point x="565" y="13" type="curve"/>
      <point x="550" y="26"/>
      <point x="534" y="40"/>
    </contour>
    <contour>
      <point x="473" y="0" type="line"/>
      <point x="720" y="0" type="line"/>
      <point x="720" y="73" type="line"/>
      <point x="716" y="73" type="line"/>
      <point x="690" y="73"/>
      <point x="674" y="78"/>
      <point x="667" y="101" type="curve" smooth="yes"/>
      <point x="469" y="710" type="line"/>
      <point x="290" y="710" type="line"/>
      <point x="270" y="645" type="line"/>
    </contour>
  </outline>
</glyph>
<glyph name="Eng" format="1">
  <advance width="763"/>
  <unicode hex="014A"/>
  <outline>
    <contour>
      <point x="579" y="85" type="line"/>
      <point x="579" y="-7" type="line" smooth="yes"/>
      <point x="579" y="-89"/>
      <point x="540" y="-117"/>
      <point x="488" y="-117" type="curve" smooth="yes"/>
      <point x="446" y="-117"/>
      <point x="410" y="-104"/>
      <point x="390" y="-97" type="curve"/>
      <point x="390" y="-195" type="line"/>
      <point x="418" y="-207"/>
      <point x="458" y="-212"/>
      <point x="495" y="-212" type="curve" smooth="yes"/>
      <point x="602" y="-212"/>
      <point x="673" y="-142"/>
      <point x="673" y="-5" type="curve" smooth="yes"/>
      <point x="673" y="600" type="line" smooth="yes"/>
      <point x="673" y="629"/>
      <point x="695" y="637"/>
      <point x="726" y="637" type="curve" smooth="yes"/>
      <point x="737" y="637" type="line"/>
      <point x="737" y="710" type="line"/>
      <point x="509" y="710" type="line"/>
      <point x="509" y="637" type="line"/>
      <point x="521" y="637" type="line" smooth="yes"/>
      <point x="551" y="637"/>
      <point x="583" y="629"/>
      <point x="583" y="622" type="curve" smooth="yes"/>
      <point x="583" y="143" type="line"/>
      <point x="632" y="269" type="line"/>
      <point x="369" y="710" type="line"/>
      <point x="28" y="710" type="line"/>
      <point x="28" y="637" type="line"/>
      <point x="38" y="637" type="line" smooth="yes"/>
      <point x="69" y="637"/>
      <point x="92" y="630"/>
      <point x="92" y="601" type="curve" smooth="yes"/>
      <point x="92" y="114" type="line" smooth="yes"/>
      <point x="92" y="85"/>
      <point x="69" y="73"/>
      <point x="38" y="73" type="curve" smooth="yes"/>
      <point x="28" y="73" type="line"/>
      <point x="28" y="0" type="line"/>
      <point x="256" y="0" type="line"/>
      <point x="256" y="73" type="line"/>
      <point x="243" y="73" type="line" smooth="yes"/>
      <point x="213" y="73"/>
      <point x="182" y="81"/>
      <point x="182" y="88" type="curve" smooth="yes"/>
      <point x="182" y="674" type="line"/>
      <point x="155" y="670" type="line"/>
      <point x="609" y="-112" type="line"/>
    </contour>
  </outline>
</glyph>
<glyph name="ohorn" format="1">
  <advance width="671"/>
  <unicode hex="01A1"/>
  <outline>
    <contour>
      <point x="367" y="472" type="curve"/>
      <point x="596" y="457"/>
      <point x="676" y="508"/>
      <point x="676" y="680" type="curve"/>
      <point x="536" y="680" type="line"/>
      <point x="534" y="557"/>
      <point x="486" y="523"/>
      <point x="330" y="523" type="curve"/>
      <point x="335" y="509"/>
      <point x="357" y="477"/>
    </contour>
    <contour>
      <point x="327" y="-14" type="curve"/>
      <point x="512" y="-14"/>
      <point x="626" y="94"/>
      <point x="626" y="256" type="curve" smooth="yes"/>
      <point x="626" y="368"/>
      <point x="556" y="465"/>
      <point x="434" y="493" type="curve"/>
      <point x="406" y="513"/>
      <point x="369" y="523"/>
      <point x="327" y="523" type="curve" smooth="yes"/>
      <point x="143" y="523"/>
      <point x="29" y="415"/>
      <point x="29" y="255" type="curve" smooth="yes"/>
      <point x="29" y="94"/>
      <point x="143" y="-14"/>
    </contour>
    <contour>
      <point x="327" y="72" type="curve"/>
      <point x="270" y="72"/>
      <point x="240" y="131"/>
      <point x="240" y="255" type="curve" smooth="yes"/>
      <point x="240" y="378"/>
      <point x="270" y="437"/>
      <point x="327" y="437" type="curve" smooth="yes"/>
      <point x="385" y="437"/>
      <point x="415" y="378"/>
      <point x="415" y="255" type="curve" smooth="yes"/>
      <point x="415" y="131"/>
      <point x="385" y="72"/>
    </contour>
    <contour>
      <point x="307" y="538" type="move" name="top"/>
    </contour>
  </outline>
</glyph>
<glyph name="dotaccent" format="1">
  <advance width="500"/>
  <unicode hex="02D9"/>
  <outline>
    <contour>
      <point x="249" y="572" type="curve" smooth="yes"/>
      <point x="317" y="572"/>
      <point x="357" y="605"/>
      <point x="357" y="660" type="curve" smooth="yes"/>
      <point x="357" y="715"/>
      <point x="317" y="748"/>
      <point x="249" y="748" type="curve" smooth="yes"/>
      <point x="181" y="748"/>
      <point x="140" y="715"/>
      <point x="140" y="660" type="curve" smooth="yes"/>
      <point x="140" y="604"/>
      <point x="181" y="572"/>
    </contour>
    <contour>
      <point x="250" y="526" type="move" name="_top"/>
    </contour>
  </outline>
</glyph>
<glyph name="ring" format="1">
  <advance width="500"/>
  <unicode hex="02DA"/>
  <outline>
    <contour>
      <point x="210" y="664" type="curve" smooth="yes"/>
      <point x="210" y="697"/>
      <point x="228" y="712"/>
      <point x="250" y="712" type="curve" smooth="yes"/>
      <point x="273" y="712"/>
      <point x="291" y="697"/>
      <point x="291" y="664" type="curve" smooth="yes"/>
      <point x="291" y="632"/>
      <point x="274" y="616"/>
      <point x="250" y="616" type="curve" smooth="yes"/>
      <point x="227" y="616"/>
      <point x="210" y="632"/>
    </contour>
    <contour>
      <point x="389" y="664" type="curve" smooth="yes"/>
      <point x="389" y="736"/>
      <point x="330" y="772"/>
      <point x="250" y="772" type="curve" smooth="yes"/>
      <point x="170" y="772"/>
      <point x="111" y="736"/>
      <point x="111" y="664" type="curve" smooth="yes"/>
      <point x="111" y="592"/>
      <point x="170" y="556"/>
      <point x="250" y="556" type="curve" smooth="yes"/>
      <point x="330" y="556"/>
      <point x="389" y="592"/>
    </contour>
    <contour>
      <point x="250" y="526" type="move" name="_top"/>
    </contour>
  </outline>
</glyph>
<glyph name="circumflexcomb" format="1">
  <unicode hex="0302"/>
  <outline>
    <contour>
      <point x="-231" y="731" type="line"/>
      <point x="-115" y="581" type="line"/>
      <point x="-115" y="558" type="line"/>
      <point x="-203" y="558" type="line"/>
      <point x="-369" y="665" type="line"/>
      <point x="-255" y="665" type="line"/>
      <point x="-422" y="558" type="line"/>
      <point x="-499" y="558" type="line"/>
      <point x="-499" y="581" type="line"/>
      <point x="-383" y="731" type="line"/>
    </contour>
    <contour>
      <point x="-312" y="529" type="move" name="_top"/>
    </contour>
  </outline>
</glyph>
<glyph name="macroncomb" format="1">
  <advance width="375"/>
  <unicode hex="0304"/>
  <outline>
    <contour>
      <point x="-64" y="702" type="line"/>
      <point x="-64" y="592" type="line"/>
      <point x="286" y="592" type="line"/>
      <point x="286" y="702" type="line"/>
    </contour>
    <contour>
      <point x="-307" y="526" type="move" name="_top"/>
    </contour>
  </outline>
</glyph>
<glyph name="cedillacomb" format="1">
  <advance width="450"/>
  <unicode hex="033C"/>
  <outline>
    <contour>
      <point x="171" y="4" type="line"/>
      <point x="86" y="4" type="line"/>
      <point x="54" y="-100" type="line"/>
      <point x="77" y="-100" type="line" smooth="yes"/>
      <point x="125" y="-100"/>
      <point x="140" y="-112"/>
      <point x="140" y="-134" type="curve" smooth="yes"/>
      <point x="140" y="-154"/>
      <point x="127" y="-167"/>
      <point x="104" y="-167" type="curve" smooth="yes"/>
      <point x="77" y="-167"/>
      <point x="52" y="-152"/>
      <point x="28" y="-130" type="curve"/>
      <point x="-17" y="-189" type="line"/>
      <point x="15" y="-220"/>
      <point x="58" y="-238"/>
      <point x="121" y="-238" type="curve" smooth="yes"/>
      <point x="201" y="-238"/>
      <point x="258" y="-207"/>
      <point x="258" y="-139" type="curve" smooth="yes"/>
      <point x="258" y="-81"/>
      <point x="207" y="-50"/>
      <point x="123" y="-54" type="curve"/>
      <point x="100" y="-77"/>
      <point x="129" y="-76"/>
      <point x="132" y="-66" type="curve"/>
    </contour>
    <contour>
      <point x="-282" y="34" type="move" name="_bottom"/>
    </contour>
  </outline>
</glyph>
<glyph name="pi" format="1">
  <advance width="824"/>
  <unicode hex="03C0"/>
  <outline>
    <contour>
      <point x="382" y="0" type="line"/>
      <point x="382" y="456" type="line"/>
      <point x="255" y="456" type="line"/>
      <point x="245" y="198"/>
      <point x="213" y="175"/>
      <point x="213" y="0" type="curve"/>
    </contour>
    <contour>
      <point x="753" y="370" type="line"/>
      <point x="753" y="513" type="line"/>
      <point x="282" y="513" type="line" smooth="yes"/>
      <point x="123" y="513"/>
      <point x="55" y="427"/>
      <point x="25" y="310" type="curve"/>
      <point x="130" y="260" type="line"/>
      <point x="150" y="327"/>
      <point x="178" y="370"/>
      <point x="259" y="370" type="curve" smooth="yes"/>
    </contour>
    <contour>
      <point x="630" y="142" type="curve" smooth="yes"/>
      <point x="630" y="456" type="line"/>
      <point x="500" y="456" type="line"/>
      <point x="486" y="274"/>
      <point x="458" y="210"/>
      <point x="458" y="142" type="curve" smooth="yes"/>
      <point x="458" y="37"/>
      <point x="529" y="-10"/>
      <point x="623" y="-10" type="curve" smooth="yes"/>
      <point x="711" y="-10"/>
      <point x="764" y="42"/>
      <point x="791" y="127" type="curve"/>
      <point x="721" y="164" type="line"/>
      <point x="705" y="123"/>
      <point x="687" y="93"/>
      <point x="663" y="93" type="curve" smooth="yes"/>
      <point x="641" y="93"/>
      <point x="630" y="106"/>
    </contour>
  </outline>
</glyph>
<glyph name="perthousand" format="1">
  <advance width="1150"/>
  <unicode hex="2030"/>
  <outline>
    <contour>
      <point x="191" y="443" type="curve" smooth="yes"/>
      <point x="164" y="443"/>
      <point x="147" y="469"/>
      <point x="147" y="547" type="curve" smooth="yes"/>
      <point x="147" y="625"/>
      <point x="164" y="651"/>
      <point x="191" y="651" type="curve" smooth="yes"/>
      <point x="218" y="651"/>
      <point x="235" y="625"/>
      <point x="235" y="547" type="curve" smooth="yes"/>
      <point x="235" y="469"/>
      <point x="218" y="443"/>
    </contour>
    <contour>
      <point x="191" y="375" type="curve" smooth="yes"/>
      <point x="296" y="375"/>
      <point x="371" y="448"/>
      <point x="371" y="547" type="curve" smooth="yes"/>
      <point x="371" y="648"/>
      <point x="296" y="720"/>
      <point x="191" y="720" type="curve" smooth="yes"/>
      <point x="86" y="720"/>
      <point x="11" y="647"/>
      <point x="11" y="547" type="curve" smooth="yes"/>
      <point x="11" y="447"/>
      <point x="86" y="375"/>
    </contour>
    <contour>
      <point x="148" y="0" type="line"/>
      <point x="735" y="710" type="line"/>
      <point x="623" y="710" type="line"/>
      <point x="35" y="0" type="line"/>
    </contour>
    <contour>
      <point x="575" y="58" type="curve" smooth="yes"/>
      <point x="548" y="58"/>
      <point x="531" y="84"/>
      <point x="531" y="163" type="curve" smooth="yes"/>
      <point x="531" y="241"/>
      <point x="548" y="266"/>
      <point x="575" y="266" type="curve" smooth="yes"/>
      <point x="602" y="266"/>
      <point x="619" y="241"/>
      <point x="619" y="163" type="curve" smooth="yes"/>
      <point x="619" y="84"/>
      <point x="602" y="58"/>
    </contour>
    <contour>
      <point x="575" y="-10" type="curve" smooth="yes"/>
      <point x="680" y="-10"/>
      <point x="755" y="64"/>
      <point x="755" y="163" type="curve" smooth="yes"/>
      <point x="755" y="263"/>
      <point x="680" y="336"/>
      <point x="575" y="336" type="curve" smooth="yes"/>
      <point x="470" y="336"/>
      <point x="395" y="262"/>
      <point x="395" y="163" type="curve" smooth="yes"/>
      <point x="395" y="63"/>
      <point x="470" y="-10"/>
    </contour>
    <contour>
      <point x="959" y="58" type="curve" smooth="yes"/>
      <point x="932" y="58"/>
      <point x="915" y="84"/>
      <point x="915" y="163" type="curve" smooth="yes"/>
      <point x="915" y="241"/>
      <point x="932" y="266"/>
      <point x="959" y="266" type="curve" smooth="yes"/>
      <point x="987" y="266"/>
      <point x="1004" y="241"/>
      <point x="1004" y="163" type="curve" smooth="yes"/>
      <point x="1004" y="84"/>
      <point x="987" y="58"/>
    </contour>
    <contour>
      <point x="959" y="-10" type="curve" smooth="yes"/>
      <point x="1065" y="-10"/>
      <point x="1139" y="64"/>
      <point x="1139" y="163" type="curve" smooth="yes"/>
      <point x="1139" y="263"/>
      <point x="1065" y="336"/>
      <point x="959" y="336" type="curve" smooth="yes"/>
      <point x="854" y="336"/>
      <point x="780" y="262"/>
      <point x="780" y="163" type="curve" smooth="yes"/>
      <point x="780" y="63"/>
      <point x="854" y="-10"/>
    </contour>
  </outline>
</glyph>
<glyph name="minute" format="1">
  <advance width="254"/>
  <unicode hex="2032"/>
  <outline>
    <contour>
      <point x="224" y="710" type="line"/>
      <point x="212" y="609"/>
      <point x="179" y="580"/>
      <point x="161" y="450" type="curve"/>
      <point x="60" y="450" type="line"/>
      <point x="79" y="599"/>
      <point x="60" y="632"/>
      <point x="74" y="710" type="curve"/>
    </contour>
  </outline>
</glyph>
<glyph name="ruble" format="1">
  <advance width="560"/>
  <unicode hex="20BD"/>
  <outline>
    <contour>
      <point x="20" y="380" type="line"/>
      <point x="288" y="380" type="line" smooth="yes"/>
      <point x="343" y="380"/>
      <point x="375" y="424"/>
      <point x="375" y="510" type="curve" smooth="yes"/>
      <point x="375" y="591"/>
      <point x="343" y="626"/>
      <point x="293" y="626" type="curve" smooth="yes"/>
      <point x="264" y="626" type="line"/>
      <point x="264" y="83" type="line" smooth="yes"/>
      <point x="264" y="76"/>
      <point x="291" y="73"/>
      <point x="313" y="73" type="curve" smooth="yes"/>
      <point x="327" y="73" type="line"/>
      <point x="327" y="0" type="line"/>
      <point x="20" y="0" type="line"/>
      <point x="20" y="73" type="line"/>
      <point x="27" y="73" type="line" smooth="yes"/>
      <point x="54" y="73"/>
      <point x="73" y="80"/>
      <point x="73" y="109" type="curve" smooth="yes"/>
      <point x="73" y="601" type="line" smooth="yes"/>
      <point x="73" y="630"/>
      <point x="54" y="637"/>
      <point x="27" y="637" type="curve" smooth="yes"/>
      <point x="20" y="637" type="line"/>
      <point x="20" y="710" type="line"/>
      <point x="300" y="710" type="line" smooth="yes"/>
      <point x="468" y="710"/>
      <point x="560" y="639"/>
      <point x="560" y="514" type="curve" smooth="yes"/>
      <point x="560" y="384"/>
      <point x="461" y="305"/>
      <point x="298" y="305" type="curve" smooth="yes"/>
      <point x="20" y="305" type="line"/>
    </contour>
    <contour>
      <point x="392" y="166" type="line"/>
      <point x="20" y="166" type="line"/>
      <point x="20" y="241" type="line"/>
      <point x="392" y="241" type="line"/>
    </contour>
  </outline>
</glyph>
<glyph name="product" format="1">
  <advance width="770"/>
  <unicode hex="220F"/>
  <outline>
    <contour>
      <point x="28" y="710" type="line"/>
      <point x="28" y="637" type="line"/>
      <point x="38" y="637" type="line" smooth="yes"/>
      <point x="69" y="637"/>
      <point x="92" y="630"/>
      <point x="92" y="601" type="curve" smooth="yes"/>
      <point x="92" y="-114" type="line" smooth="yes"/>
      <point x="92" y="-143"/>
      <point x="69" y="-150"/>
      <point x="38" y="-150" type="curve" smooth="yes"/>
      <point x="28" y="-150" type="line"/>
      <point x="28" y="-223" type="line"/>
      <point x="345" y="-223" type="line"/>
      <point x="345" y="-150" type="line"/>
      <point x="337" y="-150" type="line" smooth="yes"/>
      <point x="317" y="-150"/>
      <point x="291" y="-147"/>
      <point x="291" y="-140" type="curve" smooth="yes"/>
      <point x="291" y="627" type="line" smooth="yes"/>
      <point x="291" y="634"/>
      <point x="321" y="637"/>
      <point x="346" y="637" type="curve" smooth="yes"/>
      <point x="424" y="637" type="line" smooth="yes"/>
      <point x="449" y="637"/>
      <point x="479" y="634"/>
      <point x="479" y="627" type="curve" smooth="yes"/>
      <point x="479" y="-140" type="line" smooth="yes"/>
      <point x="479" y="-147"/>
      <point x="453" y="-150"/>
      <point x="433" y="-150" type="curve" smooth="yes"/>
      <point x="425" y="-150" type="line"/>
      <point x="425" y="-223" type="line"/>
      <point x="742" y="-223" type="line"/>
      <point x="742" y="-150" type="line"/>
      <point x="732" y="-150" type="line" smooth="yes"/>
      <point x="701" y="-150"/>
      <point x="678" y="-143"/>
      <point x="678" y="-114" type="curve" smooth="yes"/>
      <point x="678" y="601" type="line" smooth="yes"/>
      <point x="678" y="630"/>
      <point x="701" y="637"/>
      <point x="732" y="637" type="curve" smooth="yes"/>
      <point x="742" y="637" type="line"/>
      <point x="742" y="710" type="line"/>
    </contour>
  </outline>
</glyph>
<glyph name="uni25B5" format="1">
  <advance width="834"/>
  <unicode hex="25B5"/>
  <outline>
    <contour>
      <point x="20" y="0" type="line"/>
      <point x="814" y="0" type="line"/>
      <point x="417" y="715" type="line"/>
    </contour>
    <contour>
      <point x="114" y="63" type="line"/>
      <point x="122" y="44" type="line"/>
      <point x="423" y="592" type="line"/>
      <point x="411" y="592" type="line"/>
      <point x="712" y="44" type="line"/>
      <point x="720" y="63" type="line"/>
    </contour>
  </outline>
</glyph>
<glyph name="acute.ucpl" format="1">
  <advance width="500"/>
  <outline>
    <contour>
      <point x="166" y="866" type="curve" smooth="yes"/>
      <point x="162" y="779" type="line"/>
      <point x="162" y="754" type="line"/>
      <point x="229" y="754" type="line"/>
      <point x="268" y="806" type="line" smooth="yes"/>
      <point x="307" y="858"/>
      <point x="322" y="888"/>
      <point x="322" y="918" type="curve" smooth="yes"/>
      <point x="322" y="952"/>
      <point x="299" y="979"/>
      <point x="252" y="979" type="curve" smooth="yes"/>
      <point x="194" y="979"/>
      <point x="169" y="939"/>
    </contour>
    <contour>
      <point x="189" y="694" type="move" name="_top"/>
    </contour>
  </outline>
</glyph>
<glyph name="baht" format="1">
  <advance width="560"/>
  <outline>
    <contour>
      <point x="240" y="790" type="line"/>
      <point x="240" y="676" type="line"/>
      <point x="257" y="660" type="line"/>
      <point x="257" y="46" type="line"/>
      <point x="240" y="36" type="line"/>
      <point x="240" y="-110" type="line"/>
      <point x="337" y="-110" type="line"/>
      <point x="337" y="38" type="line"/>
      <point x="319" y="50" type="line"/>
      <point x="319" y="662" type="line"/>
      <point x="337" y="673" type="line"/>
      <point x="337" y="790" type="line"/>
    </contour>
    <contour>
      <point x="321" y="708" type="curve"/>
      <point x="7" y="708" type="line"/>
      <point x="7" y="634" type="line"/>
      <point x="17" y="634" type="line" smooth="yes"/>
      <point x="37" y="634"/>
      <point x="52" y="627"/>
      <point x="52" y="598" type="curve" smooth="yes"/>
      <point x="52" y="112" type="line" smooth="yes"/>
      <point x="52" y="83"/>
      <point x="37" y="76"/>
      <point x="17" y="76" type="curve" smooth="yes"/>
      <point x="7" y="76" type="line"/>
      <point x="7" y="3" type="line"/>
      <point x="322" y="3" type="line" smooth="yes"/>
      <point x="479" y="3"/>
      <point x="557" y="78"/>
      <point x="557" y="203" type="curve" smooth="yes"/>
      <point x="557" y="318"/>
      <point x="476" y="375"/>
      <point x="355" y="381" type="curve"/>
      <point x="356" y="371" type="line"/>
      <point x="466" y="375"/>
      <point x="538" y="427"/>
      <point x="538" y="538" type="curve" smooth="yes"/>
      <point x="538" y="643"/>
      <point x="467" y="708"/>
    </contour>
    <contour>
      <point x="288" y="410" type="curve"/>
      <point x="202" y="410" type="line"/>
      <point x="202" y="628" type="line"/>
      <point x="295" y="628" type="line"/>
      <point x="360" y="628"/>
      <point x="387" y="592"/>
      <point x="387" y="525" type="curve" smooth="yes"/>
      <point x="387" y="451"/>
      <point x="367" y="410"/>
    </contour>
    <contour>
      <point x="291" y="332" type="line"/>
      <point x="376" y="332"/>
      <point x="402" y="286"/>
      <point x="402" y="212" type="curve" smooth="yes"/>
      <point x="402" y="123"/>
      <point x="367" y="82"/>
      <point x="291" y="82" type="curve" smooth="yes"/>
      <point x="202" y="82" type="line"/>
      <point x="202" y="332" type="line"/>
    </contour>
  </outline>
</glyph>
<glyph name="breve_acute.uc" format="1">
  <advance width="510"/>
  <outline>
    <contour>
      <point x="251" y="1032" type="curve" smooth="yes"/>
      <point x="206" y="956" type="line"/>
      <point x="206" y="930" type="line"/>
      <point x="260" y="930" type="line"/>
      <point x="327" y="956" type="line" smooth="yes"/>
      <point x="386" y="976"/>
      <point x="411" y="1003"/>
      <point x="411" y="1042" type="curve" smooth="yes"/>
      <point x="411" y="1077"/>
      <point x="385" y="1101"/>
      <point x="345" y="1101" type="curve" smooth="yes"/>
      <point x="303" y="1101"/>
      <point x="275" y="1077"/>
    </contour>
    <component base="breve.uc"/>
    <contour>
      <point x="250" y="744" type="move" name="_top"/>
    </contour>
  </outline>
</glyph>
<glyph name="circumflex_grave" format="1">
  <advance width="510"/>
  <outline>
    <contour>
      <point x="513" y="807" type="curve" smooth="yes"/>
      <point x="544" y="709" type="line"/>
      <point x="544" y="680" type="line"/>
      <point x="484" y="680" type="line"/>
      <point x="410" y="734" type="line" smooth="yes"/>
      <point x="364" y="764"/>
      <point x="342" y="796"/>
      <point x="342" y="834" type="curve" smooth="yes"/>
      <point x="342" y="871"/>
      <point x="372" y="899"/>
      <point x="417" y="899" type="curve" smooth="yes"/>
      <point x="469" y="899"/>
      <point x="495" y="865"/>
    </contour>
    <component base="circumflex"/>
    <contour>
      <point x="245" y="564" type="move" name="_top"/>
    </contour>
  </outline>
</glyph>
<glyph name="f_f_b" format="1">
  <advance width="1406"/>
  <outline>
    <contour>
      <point x="1163" y="261" type="curve" smooth="yes"/>
      <point x="1163" y="154"/>
      <point x="1137" y="87"/>
      <point x="1077" y="87" type="curve" smooth="yes"/>
      <point x="1024" y="87"/>
      <point x="996" y="135"/>
      <point x="969" y="204" type="curve"/>
      <point x="919" y="155" type="line"/>
      <point x="966" y="38"/>
      <point x="1026" y="-13"/>
      <point x="1138" y="-13" type="curve" smooth="yes"/>
      <point x="1277" y="-13"/>
      <point x="1374" y="100"/>
      <point x="1374" y="261" type="curve" smooth="yes"/>
      <point x="1374" y="419"/>
      <point x="1285" y="523"/>
      <point x="1146" y="523" type="curve" smooth="yes"/>
      <point x="1044" y="523"/>
      <point x="996" y="464"/>
      <point x="937" y="348" type="curve"/>
      <point x="970" y="295" type="line"/>
      <point x="1003" y="373"/>
      <point x="1034" y="422"/>
      <point x="1084" y="422" type="curve" smooth="yes"/>
      <point x="1138" y="422"/>
      <point x="1163" y="366"/>
    </contour>
    <contour>
      <point x="10" y="513" type="line"/>
      <point x="10" y="435" type="line"/>
      <point x="409" y="435" type="line"/>
      <point x="409" y="513" type="line"/>
    </contour>
    <contour>
      <point x="359" y="513" type="line"/>
      <point x="359" y="435" type="line"/>
      <point x="731" y="435" type="line"/>
      <point x="731" y="513" type="line"/>
    </contour>
    <contour>
      <point x="994" y="731" type="line"/>
      <point x="747" y="731" type="line"/>
      <point x="788" y="676" type="line"/>
      <point x="788" y="-1" type="line"/>
      <point x="914" y="-1" type="line"/>
      <point x="974" y="105" type="line"/>
      <point x="994" y="112" type="line"/>
    </contour>
    <contour>
      <point x="89" y="100" type="line" smooth="yes"/>
      <point x="89" y="78"/>
      <point x="69" y="68"/>
      <point x="35" y="68" type="curve" smooth="yes"/>
      <point x="23" y="68" type="line"/>
      <point x="23" y="0" type="line"/>
      <point x="343" y="0" type="line"/>
      <point x="343" y="68" type="line"/>
      <point x="340" y="68" type="line" smooth="yes"/>
      <point x="312" y="68"/>
      <point x="294" y="71"/>
      <point x="294" y="77" type="curve"/>
      <point x="294" y="574" type="line" smooth="yes"/>
      <point x="294" y="636"/>
      <point x="317" y="653"/>
      <point x="352" y="653" type="curve" smooth="yes"/>
      <point x="371" y="653"/>
      <point x="391" y="646"/>
      <point x="397" y="643" type="curve"/>
      <point x="397" y="725" type="line"/>
      <point x="383" y="731"/>
      <point x="349" y="737"/>
      <point x="310" y="737" type="curve" smooth="yes"/>
      <point x="192" y="737"/>
      <point x="89" y="686"/>
      <point x="89" y="535" type="curve" smooth="yes"/>
    </contour>
    <contour>
      <point x="704" y="0" type="line"/>
      <point x="704" y="68" type="line"/>
      <point x="695" y="68" type="line" smooth="yes"/>
      <point x="667" y="68"/>
      <point x="644" y="71"/>
      <point x="644" y="77" type="curve" smooth="yes"/>
      <point x="644" y="574" type="line" smooth="yes"/>
      <point x="644" y="641"/>
      <point x="672" y="664"/>
      <point x="721" y="664" type="curve" smooth="yes"/>
      <point x="771" y="664"/>
      <point x="805" y="639"/>
      <point x="830" y="579" type="curve"/>
      <point x="909" y="695" type="line"/>
      <point x="862" y="724"/>
      <point x="798" y="748"/>
      <point x="702" y="748" type="curve" smooth="yes"/>
      <point x="562" y="748"/>
      <point x="439" y="697"/>
      <point x="439" y="546" type="curve"/>
      <point x="439" y="77" type="line"/>
      <point x="439" y="71"/>
      <point x="422" y="68"/>
      <point x="395" y="68" type="curve" smooth="yes"/>
      <point x="391" y="68" type="line"/>
      <point x="391" y="0" type="line"/>
    </contour>
  </outline>
</glyph>
<glyph name="f_k" format="1">
  <advance width="1075"/>
  <outline>
    <contour>
      <point x="1060" y="0" type="line"/>
      <point x="1060" y="68" type="line"/>
      <point x="1058" y="68" type="line"/>
      <point x="1029" y="68"/>
      <point x="1004" y="77"/>
      <point x="987" y="101" type="curve" smooth="yes"/>
      <point x="813" y="359" type="line"/>
      <point x="769" y="269" type="line"/>
      <point x="921" y="404" type="line" smooth="yes"/>
      <point x="948" y="427"/>
      <point x="979" y="444"/>
      <point x="1018" y="444" type="curve"/>
      <point x="1020" y="444" type="line"/>
      <point x="1020" y="513" type="line"/>
      <point x="758" y="513" type="line"/>
      <point x="758" y="444" type="line"/>
      <point x="762" y="444" type="line"/>
      <point x="787" y="444"/>
      <point x="833" y="441"/>
      <point x="833" y="426" type="curve"/>
      <point x="666" y="279" type="line"/>
      <point x="666" y="252" type="line"/>
      <point x="775" y="77" type="line"/>
      <point x="775" y="71"/>
      <point x="751" y="68"/>
      <point x="737" y="68" type="curve"/>
      <point x="734" y="68" type="line"/>
      <point x="734" y="0" type="line"/>
    </contour>
    <contour>
      <point x="10" y="513" type="line"/>
      <point x="10" y="435" type="line"/>
      <point x="382" y="435" type="line"/>
      <point x="382" y="513" type="line"/>
    </contour>
    <contour>
      <point x="686" y="0" type="line"/>
      <point x="686" y="68" type="line"/>
      <point x="683" y="68" type="line" smooth="yes"/>
      <point x="669" y="68"/>
      <point x="645" y="71"/>
      <point x="645" y="77" type="curve"/>
      <point x="645" y="731" type="line"/>
      <point x="399" y="731" type="line"/>
      <point x="439" y="679" type="line"/>
      <point x="439" y="77" type="line"/>
      <point x="439" y="71"/>
      <point x="415" y="68"/>
      <point x="400" y="68" type="curve" smooth="yes"/>
      <point x="394" y="68" type="line"/>
      <point x="394" y="0" type="line"/>
    </contour>
    <contour>
      <point x="294" y="77" type="curve" smooth="yes"/>
      <point x="294" y="574" type="line" smooth="yes"/>
      <point x="294" y="641"/>
      <point x="322" y="664"/>
      <point x="372" y="664" type="curve" smooth="yes"/>
      <point x="421" y="664"/>
      <point x="455" y="639"/>
      <point x="480" y="579" type="curve"/>
      <point x="559" y="695" type="line"/>
      <point x="513" y="724"/>
      <point x="449" y="748"/>
      <point x="353" y="748" type="curve" smooth="yes"/>
      <point x="213" y="748"/>
      <point x="89" y="697"/>
      <point x="89" y="546" type="curve" smooth="yes"/>
      <point x="89" y="100" type="line"/>
      <point x="89" y="78"/>
      <point x="69" y="68"/>
      <point x="35" y="68" type="curve" smooth="yes"/>
      <point x="23" y="68" type="line"/>
      <point x="23" y="0" type="line"/>
      <point x="346" y="0" type="line"/>
      <point x="346" y="68" type="line"/>
      <point x="341" y="68" type="line" smooth="yes"/>
      <point x="312" y="68"/>
      <point x="294" y="71"/>
    </contour>
  </outline>
</glyph>
<glyph name="f_l" format="1">
  <advance width="705"/>
  <outline>
    <contour>
      <point x="10" y="513" type="line"/>
      <point x="10" y="435" type="line"/>
      <point x="382" y="435" type="line"/>
      <point x="382" y="513" type="line"/>
    </contour>
    <contour>
      <point x="439" y="77" type="line"/>
      <point x="439" y="71"/>
      <point x="415" y="68"/>
      <point x="400" y="68" type="curve" smooth="yes"/>
      <point x="394" y="68" type="line"/>
      <point x="394" y="0" type="line"/>
      <point x="691" y="0" type="line"/>
      <point x="691" y="68" type="line"/>
      <point x="690" y="68" type="line" smooth="yes"/>
      <point x="664" y="68"/>
      <point x="645" y="75"/>
      <point x="645" y="97" type="curve"/>
      <point x="645" y="731" type="line"/>
      <point x="403" y="731" type="line"/>
      <point x="439" y="701" type="line"/>
    </contour>
    <contour>
      <point x="346" y="0" type="line"/>
      <point x="346" y="68" type="line"/>
      <point x="341" y="68" type="line" smooth="yes"/>
      <point x="312" y="68"/>
      <point x="294" y="71"/>
      <point x="294" y="77" type="curve" smooth="yes"/>
      <point x="294" y="574" type="line" smooth="yes"/>
      <point x="294" y="641"/>
      <point x="322" y="664"/>
      <point x="372" y="664" type="curve" smooth="yes"/>
      <point x="421" y="664"/>
      <point x="455" y="639"/>
      <point x="480" y="579" type="curve"/>
      <point x="559" y="695" type="line"/>
      <point x="513" y="724"/>
      <point x="449" y="748"/>
      <point x="353" y="748" type="curve" smooth="yes"/>
      <point x="213" y="748"/>
      <point x="89" y="697"/>
      <point x="89" y="546" type="curve" smooth="yes"/>
      <point x="89" y="100" type="line"/>
      <point x="89" y="78"/>
      <point x="69" y="68"/>
      <point x="35" y="68" type="curve" smooth="yes"/>
      <point x="23" y="68" type="line"/>
      <point x="23" y="0" type="line"/>
    </contour>
  </outline>
</glyph>
<glyph name="four.den" format="1">
  <advance width="373"/>
  <outline>
    <contour>
      <point x="12" y="71" type="line"/>
      <point x="359" y="71" type="line"/>
      <point x="359" y="162" type="line"/>
      <point x="60" y="162" type="line"/>
      <point x="44" y="114" type="line"/>
      <point x="196" y="318" type="line"/>
      <point x="206" y="370" type="line"/>
      <point x="165" y="370" type="line"/>
      <point x="12" y="164" type="line"/>
    </contour>
    <contour>
      <point x="314" y="0" type="line"/>
      <point x="314" y="370" type="line"/>
      <point x="189" y="370" type="line"/>
      <point x="181" y="333" type="line"/>
      <point x="181" y="0" type="line"/>
    </contour>
  </outline>
</glyph>
<glyph name="four.lin" format="1">
  <advance width="560"/>
  <outline>
    <contour>
      <point x="21" y="180" type="line"/>
      <point x="551" y="180" type="line"/>
      <point x="551" y="313" type="line"/>
      <point x="95" y="313" type="line"/>
      <point x="72" y="240" type="line"/>
      <point x="312" y="634" type="line"/>
      <point x="331" y="710" type="line"/>
      <point x="264" y="710" type="line"/>
      <point x="21" y="315" type="line"/>
    </contour>
    <contour>
      <point x="294" y="710" type="line"/>
      <point x="282" y="626" type="line"/>
      <point x="282" y="109" type="line" smooth="yes"/>
      <point x="282" y="80"/>
      <point x="260" y="73"/>
      <point x="223" y="73" type="curve" smooth="yes"/>
      <point x="207" y="73" type="line"/>
      <point x="207" y="0" type="line"/>
      <point x="542" y="0" type="line"/>
      <point x="542" y="73" type="line"/>
      <point x="529" y="73" type="line" smooth="yes"/>
      <point x="498" y="73"/>
      <point x="476" y="80"/>
      <point x="476" y="109" type="curve" smooth="yes"/>
      <point x="476" y="710" type="line"/>
    </contour>
  </outline>
</glyph>
<glyph name="guarani.proportional" format="1">
  <advance width="800"/>
  <outline>
    <contour>
      <point x="525" y="362" type="line"/>
      <point x="525" y="289" type="line"/>
      <point x="527" y="289" type="line" smooth="yes"/>
      <point x="538" y="289"/>
      <point x="547" y="282"/>
      <point x="547" y="253" type="curve"/>
      <point x="719" y="253" type="line"/>
      <point x="719" y="282"/>
      <point x="738" y="289"/>
      <point x="763" y="289" type="curve" smooth="yes"/>
      <point x="769" y="289" type="line"/>
      <point x="769" y="362" type="line"/>
    </contour>
    <contour>
      <point x="361" y="790" type="line"/>
      <point x="361" y="663" type="line"/>
      <point x="371" y="652" type="line"/>
      <point x="371" y="53" type="line"/>
      <point x="361" y="40" type="line"/>
      <point x="361" y="-120" type="line"/>
      <point x="451" y="-120" type="line"/>
      <point x="451" y="38" type="line"/>
      <point x="442" y="53" type="line"/>
      <point x="442" y="661" type="line"/>
      <point x="451" y="670" type="line"/>
      <point x="451" y="790" type="line"/>
    </contour>
    <contour>
      <point x="416" y="-5" type="curve" smooth="yes"/>
      <point x="556" y="-5"/>
      <point x="677" y="56"/>
      <point x="719" y="111" type="curve"/>
      <point x="719" y="299" type="line"/>
      <point x="547" y="325" type="line"/>
      <point x="547" y="121" type="line"/>
      <point x="526" y="102"/>
      <point x="481" y="83"/>
      <point x="427" y="83" type="curve" smooth="yes"/>
      <point x="311" y="83"/>
      <point x="242" y="175"/>
      <point x="242" y="355" type="curve" smooth="yes"/>
      <point x="242" y="519"/>
      <point x="296" y="627"/>
      <point x="443" y="627" type="curve" smooth="yes"/>
      <point x="516" y="627"/>
      <point x="572" y="594"/>
      <point x="596" y="551" type="curve"/>
      <point x="649" y="551"/>
      <point x="593" y="602"/>
      <point x="550" y="610" type="curve"/>
      <point x="550" y="499" type="line"/>
      <point x="712" y="499" type="line"/>
      <point x="712" y="631" type="line"/>
      <point x="684" y="661"/>
      <point x="584" y="715"/>
      <point x="434" y="715" type="curve" smooth="yes"/>
      <point x="194" y="715"/>
      <point x="38" y="566"/>
      <point x="38" y="355" type="curve" smooth="yes"/>
      <point x="38" y="138"/>
      <point x="189" y="-5"/>
    </contour>
  </outline>
</glyph>
<glyph name="hook.uc" format="1">
  <advance width="511"/>
  <outline>
    <contour>
      <point x="107" y="861" type="line"/>
      <point x="112" y="913"/>
      <point x="154" y="962"/>
      <point x="254" y="962" type="curve" smooth="yes"/>
      <point x="343" y="962"/>
      <point x="393" y="931"/>
      <point x="393" y="874" type="curve" smooth="yes"/>
      <point x="393" y="807"/>
      <point x="332" y="787"/>
      <point x="240" y="784" type="curve"/>
      <point x="286" y="811" type="line"/>
      <point x="286" y="746" type="line"/>
      <point x="197" y="746" type="line"/>
      <point x="197" y="819" type="line"/>
      <point x="255" y="822"/>
      <point x="279" y="835"/>
      <point x="279" y="863" type="curve" smooth="yes"/>
      <point x="279" y="884"/>
      <point x="268" y="896"/>
      <point x="244" y="896" type="curve" smooth="yes"/>
      <point x="218" y="896"/>
      <point x="205" y="882"/>
      <point x="202" y="861" type="curve"/>
    </contour>
    <contour>
      <point x="224" y="679" type="move" name="_top"/>
    </contour>
  </outline>
</glyph>
<glyph name="liraTurkish" format="1">
  <advance width="560"/>
  <outline>
    <contour>
      <point x="19" y="393" type="line"/>
      <point x="19" y="315" type="line"/>
      <point x="405" y="510" type="line"/>
      <point x="405" y="589" type="line"/>
    </contour>
    <contour>
      <point x="19" y="241" type="line"/>
      <point x="19" y="163" type="line"/>
      <point x="405" y="359" type="line"/>
      <point x="405" y="437" type="line"/>
    </contour>
    <contour>
      <point x="295" y="84" type="curve" smooth="yes"/>
      <point x="278" y="84" type="line"/>
      <point x="278" y="601" type="line" smooth="yes"/>
      <point x="278" y="630"/>
      <point x="301" y="637"/>
      <point x="334" y="637" type="curve" smooth="yes"/>
      <point x="349" y="637" type="line"/>
      <point x="349" y="710" type="line"/>
      <point x="19" y="710" type="line"/>
      <point x="19" y="637" type="line"/>
      <point x="29" y="637" type="line" smooth="yes"/>
      <point x="60" y="637"/>
      <point x="83" y="630"/>
      <point x="83" y="601" type="curve" smooth="yes"/>
      <point x="83" y="109" type="line" smooth="yes"/>
      <point x="83" y="80"/>
      <point x="60" y="73"/>
      <point x="29" y="73" type="curve" smooth="yes"/>
      <point x="19" y="73" type="line"/>
      <point x="19" y="0" type="line"/>
      <point x="242" y="0" type="line" smooth="yes"/>
      <point x="450" y="0"/>
      <point x="535" y="96"/>
      <point x="548" y="268" type="curve"/>
      <point x="419" y="304" type="line"/>
      <point x="415" y="185"/>
      <point x="378" y="84"/>
    </contour>
  </outline>
</glyph>
<glyph name="liraTurkish.proportional" format="1">
  <advance width="656"/>
  <outline>
    <contour>
      <point x="35" y="399" type="line"/>
      <point x="35" y="317" type="line"/>
      <point x="444" y="496" type="line"/>
      <point x="444" y="578" type="line"/>
    </contour>
    <contour>
      <point x="35" y="246" type="line"/>
      <point x="35" y="164" type="line"/>
      <point x="444" y="343" type="line"/>
      <point x="444" y="425" type="line"/>
    </contour>
    <contour>
      <point x="334" y="84" type="curve" smooth="yes"/>
      <point x="294" y="84" type="line"/>
      <point x="294" y="601" type="line" smooth="yes"/>
      <point x="294" y="630"/>
      <point x="317" y="637"/>
      <point x="350" y="637" type="curve" smooth="yes"/>
      <point x="365" y="637" type="line"/>
      <point x="365" y="710" type="line"/>
      <point x="35" y="710" type="line"/>
      <point x="35" y="637" type="line"/>
      <point x="45" y="637" type="line" smooth="yes"/>
      <point x="76" y="637"/>
      <point x="99" y="630"/>
      <point x="99" y="601" type="curve" smooth="yes"/>
      <point x="99" y="109" type="line" smooth="yes"/>
      <point x="99" y="80"/>
      <point x="76" y="73"/>
      <point x="45" y="73" type="curve" smooth="yes"/>
      <point x="35" y="73" type="line"/>
      <point x="35" y="0" type="line"/>
      <point x="307" y="0" type="line" smooth="yes"/>
      <point x="533" y="0"/>
      <point x="617" y="108"/>
      <point x="632" y="275" type="curve"/>
      <point x="501" y="309" type="line"/>
      <point x="492" y="201"/>
      <point x="457" y="84"/>
    </contour>
  </outline>
</glyph>
<glyph name="minus.sub" format="1">
  <advance width="408"/>
  <outline>
    <contour>
      <point x="354" y="123" type="line"/>
      <point x="54" y="123" type="line"/>
      <point x="54" y="37" type="line"/>
      <point x="354" y="37" type="line"/>
    </contour>
  </outline>
</glyph>
<glyph name="rupeeIndian.proportional" format="1">
  <advance width="600"/>
  <outline>
    <contour>
      <point x="54" y="519" type="line"/>
      <point x="54" y="432" type="line"/>
      <point x="570" y="432" type="line"/>
      <point x="570" y="519" type="line"/>
    </contour>
    <contour>
      <point x="128" y="261" type="line"/>
      <point x="159" y="261" type="line" smooth="yes"/>
      <point x="350" y="261"/>
      <point x="471" y="344"/>
      <point x="471" y="459" type="curve" smooth="yes"/>
      <point x="471" y="568"/>
      <point x="411" y="638"/>
      <point x="236" y="648" type="curve"/>
      <point x="214" y="683"/>
      <point x="123" y="691"/>
      <point x="207" y="625" type="curve"/>
      <point x="570" y="625" type="line"/>
      <point x="570" y="710" type="line"/>
      <point x="54" y="710" type="line"/>
      <point x="54" y="621" type="line"/>
      <point x="135" y="621" type="line" smooth="yes"/>
      <point x="247" y="621"/>
      <point x="286" y="566"/>
      <point x="286" y="476" type="curve" smooth="yes"/>
      <point x="286" y="387"/>
      <point x="250" y="330"/>
      <point x="118" y="330" type="curve" smooth="yes"/>
      <point x="54" y="330" type="line"/>
      <point x="54" y="257" type="line"/>
      <point x="300" y="0" type="line"/>
      <point x="532" y="0" type="line"/>
      <point x="532" y="72" type="line"/>
      <point x="520" y="72" type="line" smooth="yes"/>
      <point x="491" y="72"/>
      <point x="475" y="80"/>
      <point x="454" y="100" type="curve" smooth="yes"/>
      <point x="243" y="305" type="line"/>
    </contour>
  </outline>
</glyph>
<glyph name="six.lin" format="1">
  <advance width="560"/>
  <outline>
    <contour>
      <point x="477" y="658" type="line"/>
      <point x="319" y="622"/>
      <point x="214" y="494"/>
      <point x="214" y="288" type="curve" smooth="yes"/>
      <point x="214" y="122"/>
      <point x="240" y="73"/>
      <point x="284" y="73" type="curve" smooth="yes"/>
      <point x="324" y="73"/>
      <point x="344" y="124"/>
      <point x="344" y="229" type="curve" smooth="yes"/>
      <point x="344" y="315"/>
      <point x="330" y="371"/>
      <point x="284" y="371" type="curve" smooth="yes"/>
      <point x="240" y="371"/>
      <point x="209" y="331"/>
      <point x="183" y="278" type="curve"/>
      <point x="177" y="348" type="line"/>
      <point x="196" y="398"/>
      <point x="245" y="453"/>
      <point x="338" y="453" type="curve" smooth="yes"/>
      <point x="456" y="453"/>
      <point x="539" y="376"/>
      <point x="539" y="236" type="curve" smooth="yes"/>
      <point x="539" y="83"/>
      <point x="438" y="-10"/>
      <point x="289" y="-10" type="curve" smooth="yes"/>
      <point x="130" y="-10"/>
      <point x="21" y="85"/>
      <point x="21" y="291" type="curve" smooth="yes"/>
      <point x="21" y="513"/>
      <point x="200" y="698"/>
      <point x="464" y="740" type="curve"/>
    </contour>
  </outline>
</glyph>
<glyph name="tilde.uc" format="1">
  <advance width="500"/>
  <outline>
    <contour>
      <point x="314" y="754" type="curve" smooth="yes"/>
      <point x="382" y="754"/>
      <point x="425" y="809"/>
      <point x="444" y="896" type="curve"/>
      <point x="363" y="924" type="line"/>
      <point x="354" y="893"/>
      <point x="342" y="876"/>
      <point x="319" y="876" type="curve" smooth="yes"/>
      <point x="282" y="876"/>
      <point x="258" y="920"/>
      <point x="188" y="920" type="curve" smooth="yes"/>
      <point x="115" y="920"/>
      <point x="78" y="867"/>
      <point x="62" y="778" type="curve"/>
      <point x="142" y="751" type="line"/>
      <point x="149" y="784"/>
      <point x="161" y="799"/>
      <point x="183" y="799" type="curve" smooth="yes"/>
      <point x="214" y="799"/>
      <point x="239" y="754"/>
    </contour>
    <contour>
      <point x="250" y="694" type="move" name="_top"/>
    </contour>
  </outline>
</glyph>
<glyph name="two.den" format="1">
  <advance width="363"/>
  <outline>
    <contour>
      <point x="214" y="96" type="line" smooth="yes"/>
      <point x="260" y="96"/>
      <point x="275" y="100"/>
      <point x="279" y="122" type="curve" smooth="yes"/>
      <point x="285" y="152" type="line"/>
      <point x="341" y="152" type="line"/>
      <point x="341" y="0" type="line"/>
      <point x="22" y="0" type="line"/>
      <point x="22" y="103" type="line"/>
      <point x="134" y="158"/>
      <point x="193" y="187"/>
      <point x="193" y="266" type="curve" smooth="yes"/>
      <point x="193" y="302"/>
      <point x="180" y="318"/>
      <point x="156" y="318" type="curve" smooth="yes"/>
      <point x="125" y="318"/>
      <point x="107" y="289"/>
      <point x="99" y="270" type="curve"/>
      <point x="99" y="287"/>
      <point x="108" y="325"/>
      <point x="128" y="327" type="curve"/>
      <point x="128" y="249" type="line"/>
      <point x="25" y="249" type="line"/>
      <point x="25" y="309" type="line"/>
      <point x="51" y="349"/>
      <point x="103" y="375"/>
      <point x="177" y="375" type="curve" smooth="yes"/>
      <point x="277" y="375"/>
      <point x="329" y="333"/>
      <point x="329" y="264" type="curve" smooth="yes"/>
      <point x="329" y="170"/>
      <point x="190" y="120"/>
      <point x="83" y="78" type="curve"/>
      <point x="70" y="79"/>
      <point x="73" y="92"/>
      <point x="74" y="96" type="curve"/>
    </contour>
  </outline>
</glyph>
<glyph name="uni20B8.proportional" format="1">
  <advance width="647"/>
  <outline>
    <contour>
      <point x="228" y="109" type="line" smooth="yes"/>
      <point x="228" y="80"/>
      <point x="206" y="73"/>
      <point x="175" y="73" type="curve" smooth="yes"/>
      <point x="161" y="73" type="line"/>
      <point x="161" y="0" type="line"/>
      <point x="486" y="0" type="line"/>
      <point x="486" y="73" type="line"/>
      <point x="471" y="73" type="line" smooth="yes"/>
      <point x="440" y="73"/>
      <point x="418" y="80"/>
      <point x="418" y="109" type="curve" smooth="yes"/>
      <point x="418" y="472" type="line"/>
      <point x="434" y="472" type="line" smooth="yes"/>
      <point x="487" y="472"/>
      <point x="521" y="463"/>
      <point x="523" y="425" type="curve" smooth="yes"/>
      <point x="530" y="325" type="line"/>
      <point x="615" y="325" type="line"/>
      <point x="615" y="555" type="line"/>
      <point x="32" y="555" type="line"/>
      <point x="32" y="325" type="line"/>
      <point x="116" y="325" type="line"/>
      <point x="123" y="425" type="line" smooth="yes"/>
      <point x="125" y="463"/>
      <point x="159" y="472"/>
      <point x="212" y="472" type="curve" smooth="yes"/>
      <point x="228" y="472" type="line"/>
    </contour>
    <contour>
      <point x="32" y="710" type="line"/>
      <point x="32" y="627" type="line"/>
      <point x="615" y="627" type="line"/>
      <point x="615" y="710" type="line"/>
    </contour>
  </outline>
</glyph>
<glyph name="won.proportional" format="1">
  <advance width="994"/>
  <outline>
    <contour>
      <point x="26" y="710" type="line"/>
      <point x="26" y="637" type="line"/>
      <point x="33" y="637" type="line" smooth="yes"/>
      <point x="59" y="637"/>
      <point x="77" y="632"/>
      <point x="82" y="607" type="curve" smooth="yes"/>
      <point x="200" y="0" type="line"/>
      <point x="416" y="0" type="line"/>
      <point x="519" y="642" type="line"/>
      <point x="495" y="658" type="line"/>
      <point x="596" y="0" type="line"/>
      <point x="802" y="0" type="line"/>
      <point x="912" y="594" type="line" smooth="yes"/>
      <point x="918" y="627"/>
      <point x="936" y="637"/>
      <point x="962" y="637" type="curve" smooth="yes"/>
      <point x="968" y="637" type="line"/>
      <point x="968" y="710" type="line"/>
      <point x="775" y="710" type="line"/>
      <point x="775" y="637" type="line"/>
      <point x="789" y="637" type="line" smooth="yes"/>
      <point x="810" y="637"/>
      <point x="836" y="630"/>
      <point x="836" y="619" type="curve"/>
      <point x="742" y="85" type="line"/>
      <point x="763" y="104" type="line"/>
      <point x="666" y="710" type="line"/>
      <point x="462" y="710" type="line"/>
      <point x="358" y="73" type="line"/>
      <point x="380" y="83" type="line"/>
      <point x="290" y="627" type="line"/>
      <point x="290" y="634"/>
      <point x="317" y="637"/>
      <point x="340" y="637" type="curve" smooth="yes"/>
      <point x="353" y="637" type="line"/>
      <point x="353" y="710" type="line"/>
    </contour>
    <contour>
      <point x="26" y="477" type="line"/>
      <point x="26" y="402" type="line"/>
      <point x="249" y="402" type="line"/>
      <point x="269" y="402" type="line"/>
      <point x="437" y="402" type="line"/>
      <point x="454" y="477" type="line"/>
    </contour>
    <contour>
      <point x="608" y="402" type="line"/>
      <point x="839" y="402" type="line"/>
      <point x="848" y="402" type="line"/>
      <point x="968" y="402" type="line"/>
      <point x="968" y="477" type="line"/>
      <point x="596" y="477" type="line"/>
    </contour>
    <contour>
      <point x="418" y="230" type="line"/>
      <point x="656" y="230" type="line"/>
      <point x="647" y="304" type="line"/>
      <point x="431" y="304" type="line"/>
    </contour>
    <contour>
      <point x="823" y="230" type="line"/>
      <point x="968" y="230" type="line"/>
      <point x="968" y="304" type="line"/>
      <point x="832" y="304" type="line"/>
    </contour>
    <contour>
      <point x="184" y="304" type="line"/>
      <point x="26" y="304" type="line"/>
      <point x="26" y="230" type="line"/>
      <point x="193" y="230" type="line"/>
    </contour>
  </outline>
</glyph>
<glyph name="zero.old" format="1">
  <advance width="560"/>
  <outline>
    <contour>
      <point x="280" y="-11" type="curve" smooth="yes"/>
      <point x="434" y="-11"/>
      <point x="544" y="98"/>
      <point x="544" y="273" type="curve" smooth="yes"/>
      <point x="544" y="449"/>
      <point x="434" y="558"/>
      <point x="280" y="558" type="curve" smooth="yes"/>
      <point x="126" y="558"/>
      <point x="16" y="449"/>
      <point x="16" y="273" type="curve" smooth="yes"/>
      <point x="16" y="98"/>
      <point x="126" y="-11"/>
    </contour>
    <contour>
      <point x="288" y="75" type="curve" smooth="yes"/>
      <point x="234" y="75"/>
      <point x="213" y="120"/>
      <point x="213" y="273" type="curve" smooth="yes"/>
      <point x="213" y="427"/>
      <point x="233" y="473"/>
      <point x="280" y="473" type="curve" smooth="yes"/>
      <point x="327" y="473"/>
      <point x="348" y="427"/>
      <point x="348" y="273" type="curve" smooth="yes"/>
      <point x="348" y="120"/>
      <point x="329" y="75"/>
    </contour>
  </outline>
</glyph>
<glyph name="zero.slashlin" format="1">
  <advance width="560"/>
  <outline>
    <contour>
      <point x="404" y="524" type="line"/>
      <point x="151" y="282" type="line"/>
      <point x="158" y="184" type="line"/>
      <point x="410" y="426" type="line"/>
    </contour>
    <contour>
      <point x="280" y="-11" type="curve" smooth="yes"/>
      <point x="435" y="-11"/>
      <point x="544" y="129"/>
      <point x="544" y="354" type="curve" smooth="yes"/>
      <point x="544" y="581"/>
      <point x="435" y="720"/>
      <point x="280" y="720" type="curve" smooth="yes"/>
      <point x="125" y="720"/>
      <point x="16" y="581"/>
      <point x="16" y="354" type="curve" smooth="yes"/>
      <point x="16" y="129"/>
      <point x="125" y="-11"/>
    </contour>
    <contour>
      <point x="280" y="76" type="curve" smooth="yes"/>
      <point x="226" y="76"/>
      <point x="205" y="136"/>
      <point x="205" y="354" type="curve" smooth="yes"/>
      <point x="205" y="576"/>
      <point x="226" y="634"/>
      <point x="280" y="634" type="curve" smooth="yes"/>
      <point x="334" y="634"/>
      <point x="355" y="576"/>
      <point x="355" y="354" type="curve" smooth="yes"/>
      <point x="355" y="136"/>
      <point x="333" y="76"/>
    </contour>
  </outline>
</glyph>
